<svg clip-rule="evenodd" fill-rule="evenodd" stroke-linejoin="round" stroke-miterlimit="2" viewBox="0 0 34 34" xmlns="http://www.w3.org/2000/svg" xmlns:xlink="http://www.w3.org/1999/xlink"><linearGradient id="a" gradientTransform="matrix(0 -22.7797 22.7797 0 17.1808 28.3899)" gradientUnits="userSpaceOnUse" x1="0" x2="1" y1="0" y2="0"><stop offset="0" stop-color="#7400e1"/><stop offset="1" stop-color="#4000bf"/></linearGradient><path d="m17 32.187c8.387 0 15.186-6.8 15.186-15.187s-6.799-15.186-15.186-15.186-15.187 6.799-15.187 15.186 6.8 15.187 15.187 15.187z" fill="#fff" fill-rule="nonzero"/><path d="m17 1c-8.837 0-16 7.163-16 16s7.163 16 16 16 16-7.163 16-16-7.163-16-16-16zm0 1.627c7.938 0 14.373 6.435 14.373 14.373s-6.435 14.373-14.373 14.373-14.373-6.435-14.373-14.373 6.435-14.373 14.373-14.373z" fill="#4000bf" fill-rule="nonzero"/><path d="m17.181 5.61c6.29 0 11.39 5.1 11.39 11.39 0 6.291-5.1 11.39-11.39 11.39-6.291 0-11.39-5.099-11.39-11.39 0-1.537.305-3.004.857-4.342.806 1.098 2.106 1.811 3.572 1.811 2.447 0 4.43-1.983 4.43-4.429 0-1.467-.713-2.767-1.811-3.573 1.338-.552 2.804-.857 4.342-.857z" fill="url(#a)"/></svg>