<svg fill="none" height="58" viewBox="0 0 58 58" width="58" xmlns="http://www.w3.org/2000/svg" xmlns:xlink="http://www.w3.org/1999/xlink"><filter id="a" color-interpolation-filters="sRGB" filterUnits="userSpaceOnUse" height="58" width="58" x="0" y="0"><feFlood flood-opacity="0" result="BackgroundImageFix"/><feColorMatrix in="SourceAlpha" type="matrix" values="0 0 0 0 0 0 0 0 0 0 0 0 0 0 0 0 0 0 127 0"/><feOffset/><feGaussianBlur stdDeviation="1.5"/><feColorMatrix type="matrix" values="0 0 0 0 0 0 0 0 0 0 0 0 0 0 0 0 0 0 0.25 0"/><feBlend in2="BackgroundImageFix" mode="normal" result="effect1_dropShadow"/><feBlend in="SourceGraphic" in2="effect1_dropShadow" mode="normal" result="shape"/></filter><linearGradient id="b" gradientUnits="userSpaceOnUse" x1="4.93389" x2="50.0579" y1="10.9504" y2="51.3471"><stop offset="0"/><stop offset="1" stop-color="#424242"/></linearGradient><linearGradient id="c" gradientUnits="userSpaceOnUse" x1="10.2" x2="53.2959" y1="2.1405" y2="51.977"><stop offset="0" stop-color="#3f16b4"/><stop offset=".442708" stop-color="#b8a3f3"/><stop offset=".901042" stop-color="#795ad2"/></linearGradient><path d="m3 9.87604h52v32.23136c0 7.1204-5.7722 12.8926-12.8926 12.8926h-26.2148c-7.1204 0-12.8926-5.7722-12.8926-12.8926z" fill="url(#b)"/><g filter="url(#a)"><path clip-rule="evenodd" d="m7.29752 3c-2.37345 0-4.29752 1.92407-4.29752 4.29752v39.10748c0 4.7469 3.84813 8.595 8.595 8.595h34.81c4.7469 0 8.595-3.8481 8.595-8.595v-39.10748c0-2.37345-1.9241-4.29752-4.2975-4.29752zm46.07748 7.3125h-48.75v35.75c0 4.0349 3.27763 7.3125 7.3125 7.3125h34.125c4.0349 0 7.3125-3.2776 7.3125-7.3125z" fill="url(#c)" fill-rule="evenodd"/></g><g fill="#fff"><path clip-rule="evenodd" d="m35.4951 28.9977c.0487.4988-.2735.9473-.7196 1.0017-2.8179.3436-4.6497.3272-8.2778.0025-.4473-.0401-.7809-.478-.7451-.9782s.4275-.8733.8747-.8332c3.5629.3188 5.2867.3298 7.9721.0024.4461-.0544.8471.3059.8957.8048z" fill-rule="evenodd"/><path clip-rule="evenodd" d="m23.628 23.6281c0 3.7975-3.0785 6.876-6.876 6.876s-6.87602-3.0785-6.87602-6.876 3.07852-6.876 6.87602-6.876 6.876 3.0785 6.876 6.876zm-2.5785 0c0 2.3735-1.924 4.2975-4.2975 4.2975-2.3734 0-4.2975-1.924-4.2975-4.2975 0-.1744.0104-.3464.0306-.5154.4041.3226.9163.5154 1.4735.5154 1.3054 0 2.3637-1.0582 2.3637-2.3636 0-.6989-.3034-1.3269-.7855-1.7597.3853-.1134.7932-.1742 1.2152-.1742 2.3735 0 4.2975 1.9241 4.2975 4.2975z" fill-rule="evenodd"/><path d="m9.5 7.0625c0 .89746-.72754 1.625-1.625 1.625s-1.625-.72754-1.625-1.625.72754-1.625 1.625-1.625 1.625.72754 1.625 1.625z" fill-opacity=".5"/><path d="m14.375 7.0625c0 .89746-.7275 1.625-1.625 1.625s-1.625-.72754-1.625-1.625.7275-1.625 1.625-1.625 1.625.72754 1.625 1.625z" fill-opacity=".5"/><path d="m19.25 7.0625c0 .89746-.7275 1.625-1.625 1.625s-1.625-.72754-1.625-1.625.7275-1.625 1.625-1.625 1.625.72754 1.625 1.625z" fill-opacity=".5"/></g></svg>